HIERARCHY
ROOT Hips
{
	OFFSET 0.000000 0.000000 0.000000 
	CHANNELS 6 Xposition Yposition Zposition Zrotation Yrotation Xrotation
	JOINT LeftUpLeg
	{
		OFFSET 1.363060 -1.794630 0.839290 
		CHANNELS 3 Zrotation Yrotation Xrotation
		JOINT LeftLeg
		{
			OFFSET 2.448110 -6.726130 0.000000 
			CHANNELS 3 Zrotation Yrotation Xrotation
			JOINT LeftFoot
			{
				OFFSET 2.562200 -7.039590 0.000000 
				CHANNELS 3 Zrotation Yrotation Xrotation
				JOINT LeftToeBase
				{
					OFFSET 0.157640 -0.433110 2.322550 
					CHANNELS 3 Zrotation Yrotation Xrotation
					End Site
					{
						OFFSET 0.000000 0.000000 0.000000 
					}
				}
			}
		}
	}
	JOINT RightUpLeg
	{
		OFFSET -1.305520 -1.794630 0.839290 
		CHANNELS 3 Zrotation Yrotation Xrotation
		JOINT RightLeg
		{
			OFFSET -2.542530 -6.985550 0.000000 
			CHANNELS 3 Zrotation Yrotation Xrotation
			JOINT RightFoot
			{
				OFFSET -2.568260 -7.056230 0.000000 
				CHANNELS 3 Zrotation Yrotation Xrotation
				JOINT RightToeBase
				{
					OFFSET -0.164730 -0.452590 2.363150 
					CHANNELS 3 Zrotation Yrotation Xrotation
					End Site
					{
						OFFSET 0.000000 0.000000 0.000000 
					}
				}
			}
		}
	}
	JOINT Spine
	{
		OFFSET 0.028270 2.035590 -0.193380 
		CHANNELS 3 Zrotation Yrotation Xrotation
		JOINT Spine1
		{
			OFFSET 0.056720 2.048850 -0.042750 
			CHANNELS 3 Zrotation Yrotation Xrotation
			JOINT Neck1
			{
				OFFSET -0.054170 1.746240 0.172020 
				CHANNELS 3 Zrotation Yrotation Xrotation
				JOINT Head
				{
					OFFSET 0.104070 1.761360 -0.123970 
					CHANNELS 3 Zrotation Yrotation Xrotation
					End Site
					{
						OFFSET 0.000000 0.000000 0.000000 
					}
				}
			}
			JOINT LeftArm
			{
				OFFSET 3.362410 1.200890 -0.311210 
				CHANNELS 3 Zrotation Yrotation Xrotation
				JOINT LeftForeArm
				{
					OFFSET 4.983000 -0.000000 -0.000000 
					CHANNELS 3 Zrotation Yrotation Xrotation
					JOINT LeftHand
					{
						OFFSET 3.483560 -0.000000 -0.000000 
						CHANNELS 3 Zrotation Yrotation Xrotation
						JOINT LeftHandIndex1
						{
							OFFSET 0.715260 -0.000000 -0.000000 
							CHANNELS 3 Zrotation Yrotation Xrotation
							End Site
							{
								OFFSET 0.000000 0.000000 0.000000 
							}
						}
					}
				}
			}
			JOINT RightArm
			{
				OFFSET -3.136600 1.374050 -0.404650 
				CHANNELS 3 Zrotation Yrotation Xrotation
				JOINT RightForeArm
				{
					OFFSET -5.241900 -0.000000 -0.000000 
					CHANNELS 3 Zrotation Yrotation Xrotation
					JOINT RightHand
					{
						OFFSET -3.444170 -0.000000 -0.000000 
						CHANNELS 3 Zrotation Yrotation Xrotation
						JOINT RightHandIndex1
						{
							OFFSET -0.622530 -0.000000 -0.000000 
							CHANNELS 3 Zrotation Yrotation Xrotation
							End Site
							{
								OFFSET 0.000000 0.000000 0.000000 
							}
						}
					}
				}
			}
		}
	}
}
MOTION
Frames: 6
Frame Time: 0.041667
-5.807383 9.526160 -0.786656 -26.898786 -24.582078 -6.147836 24.414414 26.244593 -97.511298 30.559041 12.673710 128.379658 7.481948 -20.821796 17.998662 3.237700 -11.070200 -32.516900 -12.553032 -11.649575 -56.370894 -24.181599 -17.813196 102.162451 -3.599684 16.735576 11.138895 -1.840500 8.525600 -24.322300 -1.392905 0.794442 4.497305 -2.623877 0.317793 4.113036 16.767874 -7.942695 15.153414 6.876700 -3.487600 5.288600 -46.640418 -13.232882 -34.985185 -0.263725 -3.548547 -0.783442 -1.857602 1.354345 5.416251 -7.125000 0.000000 0.000000 39.745826 36.028751 19.170092 -52.133723 44.935629 -30.267013 1.594859 -0.407797 -13.433241 7.125000 0.000000 0.000000 
-5.683521 9.569975 -0.735594 -26.139153 -23.968630 -6.454171 27.043868 33.295510 -98.204749 31.272415 11.749590 131.774678 7.767265 -25.813401 18.240323 2.999900 -10.695000 -31.257900 -14.352712 -8.041733 -55.165665 -22.560441 -18.422100 96.635343 -3.189954 12.523488 11.833398 -1.332200 7.308700 -20.633300 -1.244179 0.293096 4.405892 -1.862772 -0.026985 4.086302 16.555601 -8.003009 14.822365 6.801000 -3.526800 5.195400 -47.094124 -12.810384 -33.883995 -0.307792 -3.691163 -0.589496 -1.288674 0.642460 8.454277 -7.125000 0.000000 0.000000 43.304462 35.771143 19.886477 -47.650284 43.447228 -26.368214 1.847408 -0.509630 -14.471060 7.125000 0.000000 0.000000 
-5.566236 9.599519 -0.685648 -25.372698 -23.347858 -6.743053 30.396696 40.200454 -98.221323 31.888630 10.937840 134.515810 7.536809 -30.590776 18.477947 2.752900 -10.283800 -29.900800 -16.282229 -4.501641 -53.762208 -20.788565 -18.882224 90.727793 -2.735468 9.117927 12.306010 -1.059000 6.543000 -18.368300 -1.081962 -0.200649 4.326068 -1.093291 -0.361420 4.031288 16.441404 -8.082910 14.411444 6.760000 -3.571900 5.088600 -47.633362 -12.153588 -30.031929 -0.146386 -4.510769 -0.570191 -0.738524 -0.150341 9.566636 -7.125000 0.000000 0.000000 46.558354 35.260807 20.222123 -43.278024 41.815437 -22.858557 2.107285 -0.524705 -15.506361 7.125000 0.000000 0.000000 
-5.455529 9.612340 -0.635144 -24.556253 -22.737676 -6.980712 34.504433 46.033560 -97.204184 32.360436 10.319238 136.501936 6.768752 -34.831347 19.528278 2.463500 -9.771200 -28.239100 -18.360238 -0.987913 -52.265717 -18.908939 -19.165048 84.623322 -2.333404 6.506448 12.654867 -1.036500 6.475200 -18.169700 -0.906752 -0.641493 4.270305 -0.317998 -0.666548 3.998348 16.443437 -8.220060 13.888489 6.769000 -3.646700 4.952100 -48.252450 -11.348663 -24.215240 0.355506 -6.003372 -0.734618 -0.151764 -0.800363 9.250713 -7.125000 0.000000 0.000000 49.366586 34.499063 20.161663 -39.051312 40.005992 -19.719228 2.365298 -0.447632 -16.481271 7.125000 0.000000 0.000000 
-5.352068 9.607100 -0.581630 -23.666631 -22.139396 -7.107430 38.847699 50.264579 -95.149485 32.677051 9.920052 137.686410 5.691113 -38.218006 21.066743 2.349000 -9.558100 -27.557200 -20.626955 2.502517 -50.818902 -16.921679 -19.247473 78.331308 -2.041246 4.595042 13.241938 -1.175100 6.880400 -19.361600 -0.769497 -0.997989 4.241233 0.278410 -0.907811 4.021570 16.625641 -8.473069 13.222503 6.855300 -3.783100 4.773200 -48.735395 -10.511570 -17.654940 1.291702 -8.037677 -1.046747 0.390265 -1.146516 8.418008 -7.125000 0.000000 0.000000 51.759797 33.525993 19.629409 -34.954837 37.984015 -16.904503 2.615746 -0.277691 -17.401906 7.125000 0.000000 0.000000 
-5.308254 9.528278 -0.494447 -22.786273 -21.578489 -7.069251 43.848760 53.864222 -92.377309 32.920812 9.639000 138.286026 3.802412 -42.211710 23.669663 2.210700 -9.291800 -26.712300 -23.215964 5.873609 -49.928029 -15.025991 -19.135599 72.414236 -1.878917 3.270354 14.194513 -1.329500 7.301800 -20.612500 -0.679845 -1.248183 4.234510 0.606968 -1.062213 4.107749 16.936333 -8.861244 12.400335 6.991600 -3.996000 4.529900 -48.992173 -9.754807 -11.381528 2.679087 -10.435088 -1.467586 0.768093 -1.185685 7.671738 -7.125000 0.000000 0.000000 53.769395 32.394255 18.640695 -30.963165 35.731944 -14.370979 2.853365 -0.010434 -18.366272 7.125000 0.000000 0.000000 
